# xmcd
#
# Track frame offsets:
#	150
#	12765
#	27730
#	42150
#	60000
#	78152
#	95635
#	110210
#	124465
#	135720
#	150275
#	166927
#	183280
#	200685
#
# Disc length: 2884 seconds
#
# Revision: 1
# Processed by: cddbd v1.5.1PL0 Copyright (c) Steve Scherf et al.
# Submitted via: EasyCDDAExtractor 7.0.5.4
#
DISCID=b30b420e
DTITLE=Henrique E Hernane - Volume 01
DYEAR=1900
DGENRE=
TTITLE0=Carminha
TTITLE1=Levanta Esse Deitado
TTITLE2=Jogo De Sinuca
TTITLE3=Quebra Esse Silêncio
TTITLE4=Mulher Amada
TTITLE5=Não Durmo Sem Ela
TTITLE6=Axé E Viola
TTITLE7=Forró Do Limpa Banco
TTITLE8=Com a Cara e a Coragem
TTITLE9=A Dança do Cowboy
TTITLE10=Loucura e Desejo
TTITLE11=Lenha na Fogueira
TTITLE12=Você Vive em Mim
TTITLE13=Volta
EXTD=
EXTT0=
EXTT1=
EXTT2=
EXTT3=
EXTT4=
EXTT5=
EXTT6=
EXTT7=
EXTT8=
EXTT9=
EXTT10=
EXTT11=
EXTT12=
EXTT13=
PLAYORDER=
